<svg data-v-423bf9ae="" xmlns="http://www.w3.org/2000/svg" viewBox="0 0 505 90" class="iconLeft"><!----><!----><!----><g data-v-423bf9ae="" id="9c528012-610e-4eb7-9d27-8f461fa99320" fill="#ffffff" transform="matrix(4.966871763892457,0,0,4.966871763892457,133.59045646760873,-3.5759078895594527)"><path d="M8.37 4.79C7.55 4.13 6.41 3.78 5.08 3.78L1.26 3.78C1.11 3.78 0.98 3.91 0.98 4.06L0.98 5.18L3.14 8.69L0.98 8.69L0.98 15.53C0.98 15.68 1.11 15.81 1.26 15.81L2.90 15.81C3.05 15.81 3.16 15.68 3.16 15.53L3.16 10.89L5.11 10.89C6.43 10.88 7.56 10.54 8.37 9.88C9.20 9.23 9.66 8.30 9.66 7.34C9.66 6.36 9.20 5.43 8.37 4.79ZM4.03 5.96L5.08 5.96C6.65 5.96 7.48 6.65 7.48 7.34C7.48 7.92 6.86 8.51 5.67 8.67ZM18.70 15.54C18.70 15.69 18.58 15.82 18.44 15.82L10.78 15.82C10.63 15.82 10.50 15.69 10.50 15.54L10.50 4.06C10.50 3.91 10.63 3.78 10.78 3.78L18.16 3.78C18.31 3.78 18.44 3.91 18.44 4.06L18.44 5.70C18.44 5.85 18.31 5.96 18.16 5.96L12.68 5.96L12.68 8.71L17.88 8.71C18.03 8.71 18.16 8.82 18.16 8.97L18.16 10.61C18.16 10.77 18.03 10.89 17.88 10.89L12.68 10.89L12.68 13.62L18.44 13.62C18.58 13.62 18.70 13.75 18.70 13.90ZM28.38 11.16C28.38 11.00 28.25 10.89 28.10 10.89L27.17 10.89L25.47 4.05L25.45 3.98C25.41 3.88 25.31 3.81 25.20 3.81L23.37 3.81C23.25 3.81 23.16 3.88 23.11 3.98L23.10 4.06L20.26 15.41C20.26 15.43 20.26 15.44 20.24 15.44L20.24 15.50C20.24 15.67 20.37 15.79 20.51 15.79L22.20 15.79C22.32 15.79 22.43 15.71 22.46 15.60C22.46 15.58 22.47 15.57 22.47 15.57L23.09 13.06L25.48 13.06L26.10 15.55L26.11 15.60C26.15 15.71 26.25 15.79 26.36 15.79L28.06 15.79C28.21 15.79 28.32 15.67 28.32 15.50L28.32 15.47L28.31 15.40L27.72 13.06L28.10 13.06C28.25 13.06 28.38 12.95 28.38 12.80ZM23.63 10.89L24.29 8.30L24.93 10.89ZM38.01 15.29C38.37 15.12 38.72 14.92 39.06 14.69L39.06 14.67L39.07 14.67C39.07 14.66 39.07 14.66 39.09 14.66C39.20 14.56 39.21 14.38 39.10 14.27L38.05 13.02C37.97 12.91 37.80 12.88 37.69 12.95C37.69 12.96 37.67 12.96 37.67 12.96C36.08 14.04 33.88 13.76 32.61 12.26C31.23 10.64 31.43 8.22 33.04 6.85C34.31 5.77 36.11 5.66 37.46 6.45C37.58 6.51 37.69 6.50 37.77 6.43L39.09 5.32C39.20 5.22 39.21 5.04 39.10 4.91L39.07 4.89L39.03 4.86C36.83 3.29 33.77 3.35 31.63 5.17C29.08 7.32 28.77 11.14 30.93 13.68C32.70 15.78 35.62 16.35 38.01 15.29ZM48.65 15.54C48.65 15.69 48.52 15.82 48.38 15.82L40.73 15.82C40.57 15.82 40.45 15.69 40.45 15.54L40.45 4.06C40.45 3.91 40.57 3.78 40.73 3.78L48.10 3.78C48.26 3.78 48.38 3.91 48.38 4.06L48.38 5.70C48.38 5.85 48.26 5.96 48.10 5.96L42.63 5.96L42.63 8.71L47.82 8.71C47.98 8.71 48.10 8.82 48.10 8.97L48.10 10.61C48.10 10.77 47.98 10.89 47.82 10.89L42.63 10.89L42.63 13.62L48.38 13.62C48.52 13.62 48.65 13.75 48.65 13.90ZM59.77 15.81C61.12 15.82 62.48 15.37 63.60 14.45C66.15 12.35 66.53 8.55 64.41 5.99C63.24 4.55 61.50 3.79 59.77 3.79L56.77 3.79C56.62 3.79 56.49 3.92 56.49 4.06L56.49 15.47C56.49 15.67 56.62 15.81 56.77 15.81ZM62.73 7.38C64.08 9.00 63.84 11.42 62.20 12.75C61.50 13.34 60.63 13.64 59.77 13.62L58.67 13.62L58.67 5.98L59.77 5.98C60.87 5.98 61.98 6.45 62.73 7.38ZM74.62 11.16C74.62 11.00 74.49 10.89 74.34 10.89L73.42 10.89L71.71 4.05L71.69 3.98C71.65 3.88 71.55 3.81 71.44 3.81L69.61 3.81C69.50 3.81 69.40 3.88 69.36 3.98L69.34 4.06L66.50 15.41C66.50 15.43 66.50 15.44 66.49 15.44L66.49 15.50C66.49 15.67 66.61 15.79 66.75 15.79L68.45 15.79C68.56 15.79 68.67 15.71 68.70 15.60C68.70 15.58 68.71 15.57 68.71 15.57L69.33 13.06L71.72 13.06L72.34 15.55L72.35 15.60C72.39 15.71 72.49 15.79 72.60 15.79L74.30 15.79C74.45 15.79 74.56 15.67 74.56 15.50L74.56 15.47L74.55 15.40L73.96 13.06L74.34 13.06C74.49 13.06 74.62 12.95 74.62 12.80ZM69.87 10.89L70.53 8.30L71.18 10.89Z"></path></g><!----><g data-v-423bf9ae="" id="5e637224-7a87-4eb6-ac27-de0bce88a7a1" transform="matrix(1.2087513479549816,0,0,1.2087513479549816,-0.43774722754709217,-14.61836820358608)" stroke="none" fill="#ffa500"><path d="M97.189 51.701c-1.53-1.529-3.65-1.819-5.108-1.809a21.437 21.437 0 0 1-3.184-4.048c.845.436 1.896.749 3.185.749 4.256 0 5.958-3.405 5.958-3.405s-1.702-3.404-5.958-3.404c-2.48 0-4.088 1.092-5.002 2.058C86.139 39.048 85.697 35 85.697 32h-2.554c0 2 .188 4.778.565 6.86l-7.336-2.589-.465-2.461c-1.038-5.078-4.256-8.505-10.215-8.505-5.959-.001-9.072 3.413-10.215 8.516l-3.404 16.175L14.62 12.543c-6.81 6.811-6.81 17.025 0 23.835l4.256 4.256c-6.81 6.811-6.81 17.025 0 23.835l5.697 5.471L1 87h53.628c17.024 0 29.793-10.84 26.388-26.161l-3.419-18.123 6.446-2.246c1.062 4.412 3.091 8.04 6.23 11.198-.013 1.458.277 3.596 1.809 5.127 2.554 2.553 6.767 1.666 6.767 1.666s.893-4.206-1.66-6.76zM67.396 39.784c-1.408 0-2.554-1.144-2.554-2.554s1.146-2.554 2.554-2.554c1.409 0 2.554 1.144 2.554 2.554s-1.145 2.554-2.554 2.554z"></path></g><!----></svg>