<svg id="color" enable-background="new 0 0 24 24" height="512" viewBox="0 0 24 24" width="512" xmlns="http://www.w3.org/2000/svg"><path d="m17.5 11c-3.584 0-6.5 2.916-6.5 6.5s2.916 6.5 6.5 6.5 6.5-2.916 6.5-6.5-2.916-6.5-6.5-6.5zm.375 5.75c1.172 0 2.125.953 2.125 2.125s-.953 2.125-2.125 2.125h-1.125c-.414 0-.75-.336-.75-.75s.336-.75.75-.75h1.125c.345 0 .625-.28.625-.625s-.28-.625-.625-.625h-1.125c-.414 0-.75-.336-.75-.75v-2.75c0-.414.336-.75.75-.75h2.5c.414 0 .75.336.75.75s-.336.75-.75.75h-1.75v1.25z" fill="#f44336"/><path d="m17.5 9c.514 0 1.016.054 1.505.141l.782-.801c.425-.435.181-1.173-.423-1.265l-5.996-.917-2.688-5.728c-.247-.526-1.11-.526-1.357 0l-2.69 5.729-5.996.916c-.606.093-.848.831-.424 1.265l4.36 4.469-1.031 6.32c-.101.615.555 1.082 1.103.777l4.355-2.406c0-4.687 3.813-8.5 8.5-8.5z" fill="#ffc107"/></svg>